<svg width="293" height="293" viewBox="0 0 293 293" fill="none" xmlns="http://www.w3.org/2000/svg">
<path d="M262.557 110.677C257.503 101.393 252.302 91.6326 247.742 81.7075C246.277 78.6127 244.977 75.5178 243.677 72.5879C227.397 36.9521 210.623 0 146.496 0C82.3651 0 65.4275 36.954 49.3151 72.5879C48.0149 75.5178 46.55 78.6127 45.2498 81.7075C40.69 91.6326 35.4895 101.411 30.435 110.677C15.4556 138.347 0 167.007 0 205.097C0 239.927 12.379 264.666 36.6244 278.346C59.405 291.201 90.1697 292.996 117.2 292.996H175.799C202.828 292.996 233.592 291.201 256.376 278.346C280.786 264.502 293 239.927 293 205.097C293 167.007 277.38 138.369 262.565 110.677H262.557ZM205.092 262.393V175.793H87.8937V262.393C44.2741 258.163 29.2948 242.048 29.2948 205.092C29.2948 174.493 41.8205 151.383 56.159 124.685C61.3598 114.925 66.9084 104.835 71.7792 94.0852C73.2441 90.9903 74.7091 87.7307 76.0091 84.8007C91.6292 50.3005 101.079 29.4599 146.328 29.4599C191.577 29.4599 201.027 50.2991 216.647 84.8007C217.947 87.8955 219.412 90.9903 220.877 94.0852C225.931 104.835 231.297 114.925 236.497 124.685C250.982 151.384 263.361 174.494 263.361 205.092C263.691 242.211 248.712 258.16 205.09 262.393H205.092Z" fill="#0C0C0C"/>
<ellipse cx="103" cy="126" rx="22" ry="20" fill="#0C0C0C"/>
<ellipse cx="195" cy="126" rx="22" ry="20" fill="#0C0C0C"/>
<rect x="117" y="198" width="60" height="50" fill="white"/>
</svg>
