<svg width="38" height="38" viewBox="0 0 38 38" fill="none" xmlns="http://www.w3.org/2000/svg">
<path d="M34.0517 14.3543C33.3963 13.1501 32.7217 11.8843 32.1304 10.597C31.9404 10.1957 31.7717 9.79427 31.6031 9.41427C29.4918 4.7925 27.3163 0 18.9995 0C10.6822 0 8.48547 4.79274 6.39581 9.41427C6.22719 9.79427 6.0372 10.1957 5.86857 10.597C5.2772 11.8843 4.60273 13.1525 3.9472 14.3543C2.00449 17.9429 0 21.66 0 26.6C0 31.1172 1.60546 34.3259 4.74993 36.1C7.7044 37.7672 11.6944 38 15.2 38H22.7999C26.3054 38 30.2952 37.7672 33.2501 36.1C36.4159 34.3045 38 31.1172 38 26.6C38 21.66 35.9742 17.9457 34.0528 14.3543H34.0517ZM26.599 34.031V22.7994H11.3992V34.031C5.74204 33.4824 3.79932 31.3924 3.79932 26.5994C3.79932 22.6308 5.42382 19.6335 7.28342 16.171C7.95792 14.9051 8.67754 13.5965 9.30924 12.2024C9.49924 11.801 9.68924 11.3782 9.85783 10.9982C11.8837 6.52372 13.1092 3.82079 18.9777 3.82079C24.8462 3.82079 26.0717 6.52354 28.0976 10.9982C28.2662 11.3996 28.4562 11.801 28.6462 12.2024C29.3017 13.5965 29.9975 14.9051 30.672 16.171C32.5506 19.6337 34.1561 22.631 34.1561 26.5994C34.1988 31.4135 32.2561 33.482 26.5988 34.031H26.599Z" fill="#0C0C0C"/>
<ellipse cx="13.3584" cy="16.3415" rx="2.85324" ry="2.5939" fill="#0C0C0C"/>
<ellipse cx="25.2901" cy="16.3415" rx="2.85324" ry="2.5939" fill="#0C0C0C"/>
<rect x="15.1741" y="25.6796" width="7.78157" height="6.48474" fill="white"/>
</svg>
